# xmcd
#
# Track frame offsets: 
#        183
#        22070
#        46783
#        61245
#        74658
#        93395
#        114258
#        123358
#        131358
#
# Disc length: 2048 seconds
#
# Revision: 2
# Processed by: cddbd v1.5.2PL0 Copyright (c) Steve Scherf et al.
# Submitted via: ExactAudioCopy v0.95b3
#
DISCID=7607fe09
DTITLE=UA - Malgré La Nuit
DYEAR=1994
DGENRE=Chanson
TTITLE0=Aunque Es De Noche
TTITLE1=Le Petit Joueur De Flûteau
TTITLE2=La Tarara
TTITLE3=La Famille Tortue
TTITLE4=L'Ogresse
TTITLE5=Las Ranitas
TTITLE6=Granaina
TTITLE7=Nana
TTITLE8=Aunque Es De Noche
EXTD=
EXTT0=
EXTT1=
EXTT2=
EXTT3=
EXTT4=
EXTT5=
EXTT6=
EXTT7=
EXTT8=
PLAYORDER=
